<svg xmlns="http://www.w3.org/2000/svg" viewBox="0 0 29.7 29.7"><title>HugoSeg-Icon-Insta</title><g id="Layer_2" data-name="Layer 2"><g id="Layer_1-2" data-name="Layer 1"><path d="M14.85,2.68c4,0,4.44,0,6,.08a8.41,8.41,0,0,1,2.76.51,4.77,4.77,0,0,1,1.71,1.11,4.64,4.64,0,0,1,1.11,1.71,8.2,8.2,0,0,1,.51,2.76c.07,1.57.09,2,.09,6s0,4.44-.09,6a8.14,8.14,0,0,1-.51,2.76,4.9,4.9,0,0,1-2.82,2.82,8.14,8.14,0,0,1-2.76.51c-1.56.07-2,.09-6,.09s-4.43,0-6-.09a8.2,8.2,0,0,1-2.76-.51,4.64,4.64,0,0,1-1.71-1.11,4.77,4.77,0,0,1-1.11-1.71,8.41,8.41,0,0,1-.51-2.76c-.07-1.56-.08-2-.08-6s0-4.43.08-6a8.47,8.47,0,0,1,.51-2.76A4.9,4.9,0,0,1,6.09,3.27a8.47,8.47,0,0,1,2.76-.51c1.57-.07,2-.08,6-.08m0-2.68c-4,0-4.54,0-6.12.09A10.84,10.84,0,0,0,5.12.78,7.56,7.56,0,0,0,.78,5.12,10.84,10.84,0,0,0,.09,8.73C0,10.31,0,10.82,0,14.85S0,19.39.09,21a10.72,10.72,0,0,0,.69,3.6,7.27,7.27,0,0,0,1.71,2.63,7.31,7.31,0,0,0,2.63,1.71,10.84,10.84,0,0,0,3.61.69c1.58.08,2.09.09,6.12.09s4.54,0,6.13-.09a10.72,10.72,0,0,0,3.6-.69,7.56,7.56,0,0,0,4.34-4.34,10.72,10.72,0,0,0,.69-3.6c.08-1.59.09-2.09.09-6.13s0-4.54-.09-6.12a10.84,10.84,0,0,0-.69-3.61,7.31,7.31,0,0,0-1.71-2.63A7.27,7.27,0,0,0,24.58.78,10.72,10.72,0,0,0,21,.09C19.39,0,18.89,0,14.85,0Zm0,7.23a7.63,7.63,0,1,0,7.63,7.62A7.62,7.62,0,0,0,14.85,7.23Zm0,12.57a4.95,4.95,0,1,1,5-5A4.95,4.95,0,0,1,14.85,19.8ZM22.78,5.14a1.79,1.79,0,1,0,1.78,1.78A1.78,1.78,0,0,0,22.78,5.14Z"/></g></g></svg>