<svg xmlns="http://www.w3.org/2000/svg" viewBox="0 0 36.72 29.84"><title>HugoSeg-Icon-Twitter</title><g id="Layer_2" data-name="Layer 2"><g id="Layer_1-2" data-name="Layer 1"><path d="M11.55,29.84C25.4,29.84,33,18.36,33,8.41c0-.33,0-.65,0-1a15.32,15.32,0,0,0,3.76-3.9,15,15,0,0,1-4.33,1.19A7.52,7.52,0,0,0,35.7.55a15.11,15.11,0,0,1-4.78,1.83A7.55,7.55,0,0,0,18.08,9.25,21.34,21.34,0,0,1,2.56,1.38,7.55,7.55,0,0,0,4.89,11.44a7.4,7.4,0,0,1-3.41-.95.38.38,0,0,0,0,.1A7.53,7.53,0,0,0,7.52,18a7.34,7.34,0,0,1-3.4.13,7.54,7.54,0,0,0,7,5.24A15.1,15.1,0,0,1,1.8,26.56a15.27,15.27,0,0,1-1.8-.1,21.37,21.37,0,0,0,11.55,3.38"/></g></g></svg>