<svg xmlns="http://www.w3.org/2000/svg" viewBox="0 0 650.15 36.04"><title>HugoSeg-Icon-LogoBlack</title><g id="Layer_2" data-name="Layer 2"><g id="Layer_1-2" data-name="Layer 1"><path d="M40.54,35.4H23.46V33a8.41,8.41,0,0,0,3.18-.46A2.3,2.3,0,0,0,28,31.25a7,7,0,0,0,.31-2.31V18.52H12.22V28.94a4.52,4.52,0,0,0,.89,3.13c.6.65,2,1,4.1,1V35.4H0V33a8.36,8.36,0,0,0,3.16-.46,2.37,2.37,0,0,0,1.41-1.32,6.63,6.63,0,0,0,.32-2.32V7.12a6.68,6.68,0,0,0-.31-2.29A2.37,2.37,0,0,0,3.23,3.51,8.17,8.17,0,0,0,0,3V.67H17.21V3c-2.12,0-3.48.32-4.08,1a4.44,4.44,0,0,0-.91,3.15v8.56H28.33V7.12a7.33,7.33,0,0,0-.28-2.29,2.29,2.29,0,0,0-1.34-1.32A8.21,8.21,0,0,0,23.46,3V.67H40.54V3a8.15,8.15,0,0,0-3.22.49A2.37,2.37,0,0,0,36,4.83a7.29,7.29,0,0,0-.29,2.29V28.94A7.58,7.58,0,0,0,36,31.19a2.37,2.37,0,0,0,1.34,1.34,8,8,0,0,0,3.25.51ZM101.36,3A7.6,7.6,0,0,0,98,3.56,2.28,2.28,0,0,0,96.77,5.1a15.11,15.11,0,0,0-.23,3.07V21a43.25,43.25,0,0,1-.24,5.31,10,10,0,0,1-1.3,3.6,10.23,10.23,0,0,1-5.44,4.83A19,19,0,0,1,82.84,36a20.29,20.29,0,0,1-4.91-.63,15.3,15.3,0,0,1-4.7-2.06,9.25,9.25,0,0,1-3.3-3.77A13.8,13.8,0,0,1,69,27a13.35,13.35,0,0,1-.4-2.43c0-.76-.06-1.76-.06-3l0-14.47a4.56,4.56,0,0,0-.89-3.18C67,3.33,65.62,3,63.45,3V.67H81V3a9.27,9.27,0,0,0-3.33.45A2.41,2.41,0,0,0,76.2,4.75a6.72,6.72,0,0,0-.33,2.37V21.59a29.86,29.86,0,0,0,.22,3.91,13.17,13.17,0,0,0,.68,2.93,7,7,0,0,0,3,3.32A8.84,8.84,0,0,0,84.32,33a10,10,0,0,0,5-1.32,7.2,7.2,0,0,0,3.22-3.42,12.2,12.2,0,0,0,.93-3.39,35.72,35.72,0,0,0,.22-4.19V8.17a21.44,21.44,0,0,0-.11-2.51A2.93,2.93,0,0,0,93,4.21a2.59,2.59,0,0,0-1.52-.9A11.86,11.86,0,0,0,88.57,3V.67h12.79Zm62.06,18.67a8.67,8.67,0,0,0-2.24.48,1.83,1.83,0,0,0-1,1.1,7.92,7.92,0,0,0-.28,2.42v8.15a36.7,36.7,0,0,0-8,1c-2.08.46-3.64.78-4.69,1a21.93,21.93,0,0,1-3.69.27,17.19,17.19,0,0,1-9.65-2.64,16.75,16.75,0,0,1-6-6.79,19.37,19.37,0,0,1-2-8.53,18,18,0,0,1,2.38-9.15A17.55,17.55,0,0,1,143.5.05a16.27,16.27,0,0,1,10.73,4.08,11,11,0,0,0,1-3h2.48l.26,11.37h-2.36a12.85,12.85,0,0,0-2-4.73,11,11,0,0,0-3.7-3.41A9.72,9.72,0,0,0,145,3.07a11.19,11.19,0,0,0-3.82.68,9.31,9.31,0,0,0-3.5,2.36A12.13,12.13,0,0,0,135,10.68a22.32,22.32,0,0,0-1,7.15,31.39,31.39,0,0,0,.76,7,11.89,11.89,0,0,0,3.13,5.76A8.87,8.87,0,0,0,144.6,33a10.05,10.05,0,0,0,5.12-1.06,5,5,0,0,0,2.27-2.6,10.62,10.62,0,0,0,.52-3.44,9.13,9.13,0,0,0-.27-2.61,1.92,1.92,0,0,0-1.25-1.2,8.82,8.82,0,0,0-3-.39V19.34h15.47ZM225.85,18a18.21,18.21,0,0,1-2.26,8.88,16.75,16.75,0,0,1-6.67,6.63A20.92,20.92,0,0,1,206.48,36a21.92,21.92,0,0,1-8.65-1.59,16.85,16.85,0,0,1-6.11-4.25,17.79,17.79,0,0,1-3.51-5.84A18.81,18.81,0,0,1,187.07,18a18.4,18.4,0,0,1,2.18-8.76,16.48,16.48,0,0,1,6.55-6.65A20.69,20.69,0,0,1,206.28.05a22.28,22.28,0,0,1,9.45,1.82,16.3,16.3,0,0,1,6.07,4.58,17.87,17.87,0,0,1,3.11,5.81A19.4,19.4,0,0,1,225.85,18Zm-8.3-.1a29.62,29.62,0,0,0-.5-5.53,14.42,14.42,0,0,0-1.76-4.73,9.12,9.12,0,0,0-3.43-3.35,10.68,10.68,0,0,0-5.38-1.25,10,10,0,0,0-6.87,2.19,10.94,10.94,0,0,0-3.36,5.49,27.53,27.53,0,0,0-.88,7.18,36.89,36.89,0,0,0,.28,4.48A16.86,16.86,0,0,0,197,27.19a9.88,9.88,0,0,0,3.43,4.12A10.25,10.25,0,0,0,206.53,33a9.88,9.88,0,0,0,6-1.73A10.26,10.26,0,0,0,216,27a17.5,17.5,0,0,0,1.33-4.78A37,37,0,0,0,217.55,17.93Zm93.63,7.51a9.55,9.55,0,0,1-.69,3.41,12.16,12.16,0,0,1-2.09,3.46A10.65,10.65,0,0,1,304.87,35,11.05,11.05,0,0,1,300,36a13.4,13.4,0,0,1-5.5-1.21,12,12,0,0,1-4.62-3.58,13.51,13.51,0,0,0-1,3.51h-2.36V22.87h2.36a23.64,23.64,0,0,0,1.77,4.82,11.4,11.4,0,0,0,3.19,3.88,7.93,7.93,0,0,0,5.06,1.62A5.94,5.94,0,0,0,303,31.76a4.67,4.67,0,0,0,1.58-3.61,4.58,4.58,0,0,0-.49-2.15,5.11,5.11,0,0,0-1.41-1.66,16.65,16.65,0,0,0-2.52-1.56c-1.07-.55-2.28-1.14-3.65-1.75a29.75,29.75,0,0,1-5.17-3,14.2,14.2,0,0,1-3.06-2.93,9.66,9.66,0,0,1-1.44-2.7,8.9,8.9,0,0,1-.4-2.59,9.39,9.39,0,0,1,1.26-4.6,9.77,9.77,0,0,1,3.68-3.71A10.61,10.61,0,0,1,297,.05a10.3,10.3,0,0,1,4.64,1.09,11.77,11.77,0,0,1,3.81,3,15.89,15.89,0,0,0,.85-3h2.41v9.68h-2.41q-2.56-7.9-8.92-7.91a5.46,5.46,0,0,0-3.7,1.22,4,4,0,0,0-1.39,3.13,4.14,4.14,0,0,0,.87,2.63,7.51,7.51,0,0,0,2.29,1.91c.95.53,2.48,1.28,4.6,2.28a65.2,65.2,0,0,1,6,3.15,12.87,12.87,0,0,1,3.66,3.35A8,8,0,0,1,311.18,25.44ZM366.92,24l-.29,11.43H335.69V33c2.14,0,3.51-.31,4.12-.92a4.39,4.39,0,0,0,.93-3.18V7.12a7.13,7.13,0,0,0-.3-2.32,2.31,2.31,0,0,0-1.38-1.3A8.87,8.87,0,0,0,335.69,3V.67h28.82l.46,9h-2.36a12,12,0,0,0-1.83-4.29,4.24,4.24,0,0,0-2.33-1.59,19.42,19.42,0,0,0-3.88-.29h-6.51V15.78h3.54a8.65,8.65,0,0,0,2.71-.32,2.06,2.06,0,0,0,1.26-1.22,10.09,10.09,0,0,0,.49-2.82h2.46V23h-2.36a8.58,8.58,0,0,0-.51-2.84,2.18,2.18,0,0,0-1.3-1.21,8.63,8.63,0,0,0-2.7-.31h-3.59v8.17a29.92,29.92,0,0,0,.11,3,3.16,3.16,0,0,0,.55,1.57,2.5,2.5,0,0,0,1.45.91,11.33,11.33,0,0,0,2.89.28h2.79a12.41,12.41,0,0,0,3.37-.44,6.5,6.5,0,0,0,3.13-2.31A12,12,0,0,0,364.51,24Zm63.14-2.28a8.57,8.57,0,0,0-2.24.48,1.8,1.8,0,0,0-1,1.1,7.61,7.61,0,0,0-.28,2.42v8.15a36.79,36.79,0,0,0-8.05,1q-3.12.69-4.68,1a21.93,21.93,0,0,1-3.69.27,17.2,17.2,0,0,1-9.66-2.64,16.75,16.75,0,0,1-6-6.79,19.37,19.37,0,0,1-2-8.53,18,18,0,0,1,2.38-9.15A17.55,17.55,0,0,1,410.13.05a16.25,16.25,0,0,1,10.73,4.08,11,11,0,0,0,.95-3h2.48l.26,11.37h-2.36a12.85,12.85,0,0,0-2-4.73,11,11,0,0,0-3.7-3.41,9.72,9.72,0,0,0-4.88-1.26,11.19,11.19,0,0,0-3.82.68,9.28,9.28,0,0,0-3.49,2.36,12,12,0,0,0-2.62,4.57,22.6,22.6,0,0,0-1,7.15,30.82,30.82,0,0,0,.77,7,11.8,11.8,0,0,0,3.12,5.76A8.87,8.87,0,0,0,411.23,33a10.05,10.05,0,0,0,5.12-1.06,5,5,0,0,0,2.27-2.6,10.62,10.62,0,0,0,.52-3.44,9.21,9.21,0,0,0-.26-2.61,2,2,0,0,0-1.26-1.2,8.75,8.75,0,0,0-3-.39V19.34h15.47ZM492.48,18a18.31,18.31,0,0,1-2.25,8.88,16.88,16.88,0,0,1-6.67,6.63A21,21,0,0,1,473.12,36a22,22,0,0,1-8.66-1.59,16.94,16.94,0,0,1-6.11-4.25,17.79,17.79,0,0,1-3.51-5.84A18.81,18.81,0,0,1,453.7,18a18.52,18.52,0,0,1,2.18-8.76,16.51,16.51,0,0,1,6.56-6.65A20.65,20.65,0,0,1,472.91.05a22.29,22.29,0,0,1,9.46,1.82,16.46,16.46,0,0,1,6.07,4.58,18.06,18.06,0,0,1,3.11,5.81A19.7,19.7,0,0,1,492.48,18Zm-8.3-.1a28.79,28.79,0,0,0-.5-5.53,14.41,14.41,0,0,0-1.75-4.73,9.19,9.19,0,0,0-3.43-3.35,10.7,10.7,0,0,0-5.38-1.25,10,10,0,0,0-6.88,2.19,10.93,10.93,0,0,0-3.35,5.49,27.52,27.52,0,0,0-.89,7.18,37,37,0,0,0,.29,4.48,16.5,16.5,0,0,0,1.35,4.78,10,10,0,0,0,3.43,4.12,10.28,10.28,0,0,0,6.1,1.68,9.82,9.82,0,0,0,6-1.73A10.1,10.1,0,0,0,482.58,27a17.9,17.9,0,0,0,1.34-4.78A39.17,39.17,0,0,0,484.18,17.93ZM552.17,3a7.4,7.4,0,0,0-2.14.33,3.46,3.46,0,0,0-1.5,1,8.56,8.56,0,0,0-1.18,1.78c-.39.75-.94,1.92-1.64,3.53L534.39,36H532L520.18,8.33a29.2,29.2,0,0,0-1.72-3.57,3.23,3.23,0,0,0-1.64-1.35A9,9,0,0,0,513.77,3V.67h17.68V3a15.8,15.8,0,0,0-3.49.41A1.42,1.42,0,0,0,527,5a5.78,5.78,0,0,0,.61,2.46l8,18.57L543,8.66a10.19,10.19,0,0,0,.95-3.1c0-1.11-.38-1.8-1.15-2.08A12.09,12.09,0,0,0,539.31,3V.67h12.86ZM592.49,35.4H574.87V33a10,10,0,0,0,3.32-.42,2.36,2.36,0,0,0,1.48-1.27,6.59,6.59,0,0,0,.34-2.41V7.12a4.41,4.41,0,0,0-.93-3.18c-.62-.61-2-.92-4.21-.92V.67h17.62V3a9.7,9.7,0,0,0-3.33.44,2.39,2.39,0,0,0-1.47,1.26,6.33,6.33,0,0,0-.35,2.4V28.94a6.69,6.69,0,0,0,.33,2.34,2.45,2.45,0,0,0,1.42,1.3,9.26,9.26,0,0,0,3.4.46Zm57.66,0H633.78V33a11.43,11.43,0,0,0,3-.29,1.3,1.3,0,0,0,1-1.4,4.4,4.4,0,0,0-.3-1.56l-1.64-4.1H624.54l-.85,2.25a9.05,9.05,0,0,0-.72,2.74,1.82,1.82,0,0,0,1.19,2,8.39,8.39,0,0,0,2.78.41V35.4H615V33a5,5,0,0,0,2.43-.54,5.32,5.32,0,0,0,1.91-2,27.33,27.33,0,0,0,2-4.24L631.3,0h2.43l10.58,27.05c.76,1.91,1.33,3.2,1.69,3.88a3.86,3.86,0,0,0,1.49,1.56,5.27,5.27,0,0,0,2.66.55ZM634.88,23.18l-4.79-12.12-4.56,12.12Z"/></g></g></svg>